<?xml version="1.0" encoding="utf-8"?>
<!-- Generator: Adobe Illustrator 27.5.0, SVG Export Plug-In . SVG Version: 6.00 Build 0)  -->
<svg version="1.1" xmlns="http://www.w3.org/2000/svg" xmlns:xlink="http://www.w3.org/1999/xlink" x="0px" y="0px"
	 viewBox="0 0 500 500" style="enable-background:new 0 0 500 500;" xml:space="preserve">
<g id="Background_Complete">
	<g>
		<rect y="382.398" style="fill:#EBEBEB;" width="500" height="0.25"/>
		<rect x="416.779" y="398.494" style="fill:#EBEBEB;" width="33.122" height="0.25"/>
		<rect x="322.527" y="401.208" style="fill:#EBEBEB;" width="8.693" height="0.25"/>
		<rect x="396.586" y="389.208" style="fill:#EBEBEB;" width="19.192" height="0.25"/>
		<rect x="52.459" y="390.888" style="fill:#EBEBEB;" width="43.193" height="0.25"/>
		<rect x="104.556" y="390.888" style="fill:#EBEBEB;" width="6.333" height="0.25"/>
		<rect x="131.471" y="395.111" style="fill:#EBEBEB;" width="93.676" height="0.25"/>
		<path style="fill:#EBEBEB;" d="M237.014,337.8H43.915c-3.147,0-5.708-2.561-5.708-5.708V60.66c0-3.147,2.561-5.708,5.708-5.708
			h193.099c3.146,0,5.707,2.561,5.707,5.708v271.432C242.721,335.239,240.16,337.8,237.014,337.8z M43.915,55.203
			c-3.01,0-5.458,2.448-5.458,5.458v271.432c0,3.01,2.448,5.458,5.458,5.458h193.099c3.009,0,5.457-2.448,5.457-5.458V60.66
			c0-3.009-2.448-5.458-5.457-5.458H43.915z"/>
		<path style="fill:#EBEBEB;" d="M453.31,337.8H260.212c-3.147,0-5.707-2.561-5.707-5.708V60.66c0-3.147,2.561-5.708,5.707-5.708
			H453.31c3.148,0,5.708,2.561,5.708,5.708v271.432C459.019,335.239,456.458,337.8,453.31,337.8z M260.212,55.203
			c-3.009,0-5.457,2.448-5.457,5.458v271.432c0,3.01,2.448,5.458,5.457,5.458H453.31c3.01,0,5.458-2.448,5.458-5.458V60.66
			c0-3.009-2.448-5.458-5.458-5.458H260.212z"/>
	</g>
	<g>
		<g>
			<polygon style="fill:#F0F0F0;" points="460.432,378.477 460.432,311.991 428.409,311.991 428.409,293.816 413.077,293.816 
				413.077,240.388 393.272,220.583 353.081,220.583 353.081,277.833 297.927,277.833 297.927,289.15 258.934,289.15 
				258.934,274.287 217.042,274.287 217.042,263.088 184.332,263.088 184.332,196.761 126.429,196.761 126.429,239.025 
				113.097,239.025 113.097,254.341 82.11,254.341 82.11,279.442 65.549,279.442 52.804,292.187 52.804,305.149 40.12,305.149 
				40.12,378.477 			"/>
			<polygon style="fill:#E6E6E6;" points="421.426,311.992 427.856,311.992 428.409,311.621 428.409,311.992 460.432,311.992 
				460.432,378.477 421.426,378.477 			"/>
			<polygon style="fill:#E6E6E6;" points="354.031,293.428 360.461,293.428 361.014,292.954 361.014,293.428 393.037,293.428 
				393.037,378.478 354.031,378.478 			"/>
			<polygon style="fill:#E6E6E6;" points="258.382,279.122 258.381,289.15 259.956,289.15 261.638,299.868 256.891,378.477 
				204.058,378.477 204.058,274.287 216.49,274.287 257.622,274.287 			"/>
			<polygon style="fill:#E6E6E6;" points="135.389,254.341 135.389,378.477 39.568,378.477 39.568,305.149 52.252,305.683 
				52.252,279.466 64.996,279.442 81.558,279.442 81.558,254.341 109.681,254.341 112.544,254.341 			"/>
			<g>
				<g>
					<g>
						
							<rect x="64.938" y="286.185" transform="matrix(-1 -1.224647e-16 1.224647e-16 -1 135.6651 578.1586)" style="fill:#FFFFFF;" width="5.789" height="5.789"/>
					</g>
					<g>
						
							<rect x="75.169" y="286.185" transform="matrix(-1 -1.224647e-16 1.224647e-16 -1 156.1263 578.1586)" style="fill:#FFFFFF;" width="5.789" height="5.789"/>
					</g>
				</g>
				<g>
					<g>
						
							<rect x="64.938" y="296.973" transform="matrix(-1 -1.224647e-16 1.224647e-16 -1 135.665 599.7354)" style="fill:#FFFFFF;" width="5.789" height="5.789"/>
					</g>
					<g>
						
							<rect x="75.169" y="296.973" transform="matrix(-1 -1.224647e-16 1.224647e-16 -1 156.1262 599.7354)" style="fill:#FFFFFF;" width="5.789" height="5.789"/>
					</g>
				</g>
			</g>
			<g>
				<g>
					<g>
						
							<rect x="96.556" y="259.009" transform="matrix(-1 -1.224647e-16 1.224647e-16 -1 198.9014 523.8065)" style="fill:#FFFFFF;" width="5.789" height="5.789"/>
					</g>
					<g>
						
							<rect x="106.787" y="259.009" transform="matrix(-1 -1.224647e-16 1.224647e-16 -1 219.3627 523.8065)" style="fill:#FFFFFF;" width="5.789" height="5.789"/>
					</g>
				</g>
			</g>
			<g>
				<g>
					<g>
						
							<rect x="428.146" y="321.368" transform="matrix(-1 -1.224647e-16 1.224647e-16 -1 862.0804 648.5244)" style="fill:#FFFFFF;" width="5.789" height="5.789"/>
					</g>
					<g>
						
							<rect x="438.376" y="321.368" transform="matrix(-1 -1.224647e-16 1.224647e-16 -1 882.5416 648.5244)" style="fill:#FFFFFF;" width="5.789" height="5.789"/>
					</g>
				</g>
			</g>
			<g>
				<g>
					<g>
						
							<rect x="210.731" y="291.3" transform="matrix(-1.836970e-16 1 -1 -1.836970e-16 507.8198 80.5695)" style="fill:#FFFFFF;" width="5.789" height="5.789"/>
					</g>
					<g>
						
							<rect x="210.731" y="281.069" transform="matrix(-1.836970e-16 1 -1 -1.836970e-16 497.5893 70.3388)" style="fill:#FFFFFF;" width="5.789" height="5.789"/>
					</g>
				</g>
			</g>
		</g>
		<g>
			<g>
				<g>
					
						<rect x="114.214" y="286.185" transform="matrix(-1 -1.224647e-16 1.224647e-16 -1 234.2166 578.1585)" style="fill:#FFFFFF;" width="5.789" height="5.789"/>
				</g>
				<g>
					
						<rect x="124.444" y="286.185" transform="matrix(-1 -1.224647e-16 1.224647e-16 -1 254.6779 578.1585)" style="fill:#FFFFFF;" width="5.789" height="5.789"/>
				</g>
			</g>
		</g>
		<g>
			<g>
				
					<rect x="390.143" y="244.24" transform="matrix(-1 -1.224647e-16 1.224647e-16 -1 786.0744 494.269)" style="fill:#FFFFFF;" width="5.789" height="5.789"/>
			</g>
			<g>
				
					<rect x="400.373" y="244.24" transform="matrix(-1 -1.224647e-16 1.224647e-16 -1 806.5356 494.269)" style="fill:#FFFFFF;" width="5.789" height="5.789"/>
			</g>
		</g>
		<g>
			
				<rect x="400.373" y="255.028" transform="matrix(-1 -1.224647e-16 1.224647e-16 -1 806.5356 515.8458)" style="fill:#FFFFFF;" width="5.789" height="5.789"/>
		</g>
		<path style="fill:#F0F0F0;" d="M448.216,204.065c0.091-0.577,0.152-1.164,0.152-1.766c0-6.229-5.05-11.279-11.279-11.279
			c-0.624,0-1.231,0.064-1.828,0.161c-2.249-3.747-6.35-6.255-11.038-6.255c-5.901,0-10.87,3.974-12.387,9.39
			c-0.785-0.244-1.62-0.376-2.486-0.376c-4.616,0-8.358,3.742-8.358,8.358c0,0.606,0.068,1.197,0.191,1.766H448.216z"/>
		<path style="fill:#F0F0F0;" d="M90.969,223.123c0.065-0.415,0.109-0.837,0.109-1.269c0-4.477-3.629-8.105-8.105-8.105
			c-0.448,0-0.885,0.046-1.313,0.116c-1.616-2.693-4.563-4.495-7.932-4.495c-4.24,0-7.811,2.856-8.901,6.748
			c-0.564-0.176-1.164-0.27-1.786-0.27c-3.317,0-6.007,2.689-6.007,6.007c0,0.436,0.049,0.86,0.137,1.269H90.969z"/>
		<path style="fill:#F0F0F0;" d="M182.081,97.568c0.156-0.992,0.261-2.001,0.261-3.036c0-10.707-8.68-19.387-19.387-19.387
			c-1.072,0-2.117,0.11-3.142,0.277c-3.866-6.44-10.915-10.752-18.973-10.752c-10.142,0-18.684,6.831-21.291,16.141
			c-1.35-0.42-2.784-0.646-4.272-0.646c-7.935,0-14.367,6.432-14.367,14.367c0,1.042,0.117,2.057,0.328,3.036H182.081z"/>
	</g>
</g>
<g id="Background_Simple" style="display:none;">
	<g style="display:inline;">
		<path style="fill:#407BFF;" d="M404.8,358.579c-27.451,19.849-258.539,10.404-312.083-85.209
			c-54.791-97.837,51.351-42.509,49.614-78.413c-1.737-35.904-19.089-134.013,82.704-71.627
			c101.793,62.386,131.937,68.089,172.673,49.413c54.969-25.202,52.667,36.206,10.495,97.204
			C387.809,299.444,443.012,330.948,404.8,358.579z"/>
		<path style="opacity:0.9;fill:#FFFFFF;" d="M404.8,358.579c-27.451,19.849-258.539,10.404-312.083-85.209
			c-54.791-97.837,51.351-42.509,49.614-78.413c-1.737-35.904-19.089-134.013,82.704-71.627
			c101.793,62.386,131.937,68.089,172.673,49.413c54.969-25.202,52.667,36.206,10.495,97.204
			C387.809,299.444,443.012,330.948,404.8,358.579z"/>
	</g>
</g>
<g id="Shadow_1_">
	<ellipse id="_x3C_Path_x3E__359_" style="fill:#F5F5F5;" cx="248.06" cy="416.238" rx="193.889" ry="11.323"/>
</g>
<g id="Graphic_1">
	<g>
		<g>
			<path style="fill:#407BFF;" d="M96.105,124.357h27.738c6.911,0,12.565,5.654,12.565,12.565v25.714H97.935
				c-6.911,0-12.565-5.654-12.565-12.565v-14.979C85.369,129.163,90.176,124.357,96.105,124.357z"/>
			<polygon style="fill:#407BFF;" points="136.408,158.969 136.408,169.972 124.908,158.471 			"/>
		</g>
		<g style="opacity:0.6;">
			<path style="fill:#FFFFFF;" d="M96.105,124.357h27.738c6.911,0,12.565,5.654,12.565,12.565v25.714H97.935
				c-6.911,0-12.565-5.654-12.565-12.565v-14.979C85.369,129.163,90.176,124.357,96.105,124.357z"/>
			<polygon style="fill:#FFFFFF;" points="136.408,158.969 136.408,169.972 124.908,158.471 			"/>
		</g>
		<path style="fill:#FFFFFF;" d="M119.386,136.6c-3.917-3.504-8.497,1.25-8.497,1.25s-4.581-4.754-8.497-1.25
			c-5.587,4.999,2.536,13.95,8.497,15.745C116.85,150.55,124.973,141.598,119.386,136.6z"/>
	</g>
</g>
<g id="Graphic_2">
	<g>
		<g>
			<path style="fill:#407BFF;" d="M406.182,144.502c-20.032,0-36.329-16.297-36.329-36.329c0-20.031,16.297-36.328,36.329-36.328
				c20.032,0,36.329,16.297,36.329,36.328C442.511,128.205,426.214,144.502,406.182,144.502z M406.182,76.845
				c-17.274,0-31.329,14.054-31.329,31.328s14.054,31.329,31.329,31.329c17.274,0,31.329-14.054,31.329-31.329
				S423.457,76.845,406.182,76.845z"/>
		</g>
		<g>
			<polygon style="fill:#407BFF;" points="406.641,130.01 387.979,112.064 391.445,108.461 405.723,122.191 424.219,93.409 
				428.425,96.113 			"/>
		</g>
		<g style="opacity:0.8;">
			<path style="fill:#FFFFFF;" d="M406.182,144.502c-20.032,0-36.329-16.297-36.329-36.329c0-20.031,16.297-36.328,36.329-36.328
				c20.032,0,36.329,16.297,36.329,36.328C442.511,128.205,426.214,144.502,406.182,144.502z M406.182,76.845
				c-17.274,0-31.329,14.054-31.329,31.328s14.054,31.329,31.329,31.329c17.274,0,31.329-14.054,31.329-31.329
				S423.457,76.845,406.182,76.845z"/>
		</g>
		<g style="opacity:0.5;">
			<polygon style="fill:#FFFFFF;" points="406.641,130.01 387.979,112.064 391.445,108.461 405.723,122.191 424.219,93.409 
				428.425,96.113 			"/>
		</g>
	</g>
</g>
<g id="Device">
	<g>
		<g>
			<g>
				<path style="fill:#263238;" d="M346.914,101.667l-134.953,0.113c-8.284,0.007-14.994,6.728-14.987,15.013l0.236,281.535
					c0.007,8.284,6.729,14.994,15.013,14.987l134.953-0.113c8.284-0.007,14.994-6.728,14.987-15.013l-0.236-281.535
					C361.92,108.37,355.198,101.66,346.914,101.667z"/>
				<path style="fill:#407BFF;" d="M346.497,400.801l-133.616,0.112c-2.761,0.002-5.002-2.234-5.004-4.996l-0.234-278.393
					c-0.002-2.761,2.234-5.002,4.996-5.004l133.616-0.112c2.762-0.002,5.002,2.234,5.004,4.996l0.234,278.393
					C351.495,398.558,349.258,400.798,346.497,400.801z"/>
				<g>
					<path style="opacity:0.1;" d="M291.707,392.919l-24.049,0.02c-2.761,0.002-5.002-2.234-5.004-4.996l-0.001-1.44
						c-0.002-2.761,2.234-5.002,4.996-5.004l24.049-0.02c2.762-0.002,5.002,2.234,5.004,4.996l0.001,1.44
						C296.705,390.676,294.468,392.917,291.707,392.919z"/>
				</g>
				<g>
					<path style="opacity:0.1;" d="M291.651,326.84l-24.049,0.02c-2.762,0.002-5.002-2.234-5.004-4.996l-0.016-19.248
						c-0.002-2.761,2.234-5.002,4.996-5.004l24.049-0.02c2.762-0.002,5.002,2.234,5.004,4.996l0.016,19.248
						C296.649,324.597,294.413,326.837,291.651,326.84z"/>
					<path style="opacity:0.1;" d="M249.262,326.875l-24.049,0.02c-2.761,0.002-5.002-2.234-5.004-4.996l-0.016-19.248
						c-0.002-2.761,2.234-5.002,4.996-5.004l24.049-0.02c2.762-0.002,5.002,2.234,5.004,4.996l0.016,19.248
						C254.26,324.632,252.023,326.873,249.262,326.875z"/>
					<path style="opacity:0.1;" d="M334.041,326.804l-24.049,0.02c-2.762,0.002-5.002-2.234-5.004-4.996l-0.016-19.248
						c-0.002-2.761,2.234-5.002,4.996-5.004l24.049-0.02c2.761-0.002,5.002,2.234,5.004,4.996l0.016,19.248
						C339.039,324.561,336.802,326.802,334.041,326.804z"/>
				</g>
				<g>
					<path style="opacity:0.1;" d="M291.683,364.477l-24.049,0.02c-2.762,0.002-5.002-2.234-5.004-4.996l-0.016-19.248
						c-0.002-2.761,2.234-5.002,4.996-5.004l24.049-0.02c2.761-0.002,5.002,2.234,5.004,4.996l0.016,19.248
						C296.681,362.234,294.444,364.474,291.683,364.477z"/>
					<path style="opacity:0.1;" d="M249.293,364.512l-24.049,0.02c-2.761,0.002-5.002-2.234-5.004-4.996l-0.016-19.248
						c-0.002-2.761,2.234-5.002,4.996-5.004l24.049-0.02c2.762-0.002,5.002,2.234,5.004,4.996l0.016,19.248
						C254.291,362.269,252.055,364.51,249.293,364.512z"/>
					<path style="opacity:0.1;" d="M334.073,364.441l-24.049,0.02c-2.761,0.002-5.002-2.234-5.004-4.996l-0.016-19.248
						c-0.002-2.761,2.234-5.002,4.996-5.004l24.049-0.02c2.761-0.002,5.002,2.234,5.004,4.996l0.016,19.248
						C339.071,362.198,336.834,364.439,334.073,364.441z"/>
				</g>
				<path style="opacity:0.1;fill:#FFFFFF;" d="M351.436,327.862l-0.081-96.806c-36.479,41.866-104.349,120.465-143.39,165.725
					c0.413,2.347,2.451,4.133,4.916,4.131l75.251-0.063L351.436,327.862z"/>
				<path style="opacity:0.1;fill:#FFFFFF;" d="M207.76,257.557l125.884-145.139l-58.928,0.049
					c-15.585,17.831-42.211,48.593-67.013,77.3L207.76,257.557z"/>
				<polygon style="opacity:0.1;fill:#FFFFFF;" points="207.811,318.179 351.289,152.756 351.259,117.379 207.781,282.803 				"/>
				<g>
					<path style="opacity:0.2;enable-background:new    ;" d="M351.264,123.706l-143.616,0.121l-0.005-6.303
						c-0.002-2.761,2.234-5.002,4.996-5.004l133.616-0.112c2.762-0.002,5.002,2.234,5.004,4.996L351.264,123.706z"/>
					<path style="opacity:0.6;fill:#FFFFFF;" d="M330.708,120.896l-0.42-0.419l-0.093-0.093c-0.014-0.016-0.027-0.034-0.042-0.052
						c-0.001-0.002-0.003-0.003-0.004-0.005c-0.042-0.055-0.086-0.12-0.129-0.193l0,0c-0.163-0.279-0.317-0.688-0.326-1.23
						c0,0-0.001-1.211-0.001-1.26c-0.001-0.976-0.629-1.825-1.496-2.161c0.007-0.026,0.014-0.052,0.019-0.078
						c0-0.001,0-0.002,0-0.003c0.005-0.026,0.009-0.052,0.011-0.078c0,0,0,0,0,0l0,0c0.003-0.027,0.004-0.054,0.004-0.082
						c0-0.474-0.385-0.858-0.859-0.858c-0.474,0-0.858,0.385-0.858,0.859c0,0.028,0.002,0.055,0.004,0.082l0,0c0,0,0,0,0,0
						c0.002,0.026,0.007,0.052,0.011,0.078c0,0.001,0,0.002,0,0.003c0.005,0.026,0.012,0.052,0.019,0.078
						c-0.867,0.338-1.494,1.188-1.493,2.164c0,0.048,0.001,1.216,0.001,1.216c0,0.563-0.157,0.988-0.325,1.274l0,0
						c-0.06,0.103-0.122,0.189-0.178,0.256l-0.088,0.088l-0.419,0.42c-0.102,0.102-0.133,0.256-0.077,0.39
						c0.055,0.134,0.186,0.221,0.331,0.221l2.334-0.002c0.149,0.256,0.425,0.429,0.743,0.429c0.318,0,0.594-0.173,0.742-0.43
						l2.334-0.002c0.145,0,0.275-0.087,0.33-0.221C330.842,121.152,330.811,120.998,330.708,120.896z"/>
					<g style="opacity:0.6;enable-background:new    ;">
						
							<rect x="223.171" y="117.856" transform="matrix(-1 8.279666e-04 -8.279666e-04 -1 448.6157 238.4241)" style="opacity:0.6;fill:#FFFFFF;enable-background:new    ;" width="2.174" height="2.898"/>
						
							<rect x="219.628" y="116.892" transform="matrix(-1 8.279666e-04 -8.279666e-04 -1 441.5287 237.4662)" style="opacity:0.6;fill:#FFFFFF;enable-background:new    ;" width="2.174" height="3.865"/>
						
							<rect x="216.085" y="115.928" transform="matrix(-1 8.739245e-04 -8.739245e-04 -1 434.4471 236.4983)" style="opacity:0.6;fill:#FFFFFF;enable-background:new    ;" width="2.174" height="4.832"/>
						
							<rect x="212.542" y="114.964" transform="matrix(-1 8.279285e-04 -8.279285e-04 -1 427.3547 235.5502)" style="opacity:0.6;fill:#FFFFFF;enable-background:new    ;" width="2.174" height="5.799"/>
					</g>
					<g>
						<rect x="335.617" y="116.704" style="opacity:0.6;fill:#FFFFFF;enable-background:new    ;" width="1.288" height="2.898"/>
						
							<rect x="336.905" y="115.642" transform="matrix(-1 8.376919e-04 -8.376919e-04 -1 684.1761 236.0101)" style="opacity:0.6;fill:#FFFFFF;enable-background:new    ;" width="10.266" height="5.014"/>
					</g>
				</g>
				<path style="fill:#263238;" d="M286.929,112.457c0.003,4.132-3.344,7.485-7.476,7.488c-4.132,0.004-7.485-3.343-7.488-7.476
					c-0.004-4.132,3.344-7.485,7.476-7.488C283.573,104.978,286.925,108.325,286.929,112.457z"/>
				<path style="opacity:0.1;fill:#E0E0E0;" d="M283.311,112.46c0.002,2.134-1.727,3.866-3.861,3.868
					c-2.134,0.002-3.866-1.727-3.868-3.861c-0.002-2.134,1.727-3.866,3.861-3.868C281.578,108.597,283.309,110.326,283.311,112.46z"
					/>
				<path style="fill:#263238;" d="M284.188,118.352c0,0,6.063-5.898,17.385-5.908l-17.391-0.985L284.188,118.352z"/>
				<g>
					<path style="fill:#263238;" d="M274.715,118.36c0,0-6.073-5.888-17.395-5.878l17.389-1.015L274.715,118.36z"/>
				</g>
			</g>
		</g>
		<path style="opacity:0.3;" d="M332.995,157.131h-95.678c-5.523,0-10,4.477-10,10v147.468c0,5.523,4.477,10,10,10h95.678
			c5.523,0,10-4.477,10-10V167.131C342.995,161.608,338.518,157.131,332.995,157.131z"/>
		<g>
			<g>
				<path style="fill:#FFFFFF;" d="M329.629,150.012h-95.678c-5.523,0-10,4.477-10,10V307.48c0,5.523,4.477,10,10,10h95.678
					c5.523,0,10-4.477,10-10V160.012C339.629,154.489,335.152,150.012,329.629,150.012z"/>
				<g>
					<g>
						<path style="fill:#E0E0E0;" d="M323.049,170.82c-3.958,0-7.178-3.22-7.178-7.177s3.22-7.178,7.178-7.178
							c3.958,0,7.177,3.22,7.177,7.178S327.007,170.82,323.049,170.82z M323.049,157.77c-3.238,0-5.872,2.634-5.872,5.872
							s2.634,5.872,5.872,5.872c3.238,0,5.872-2.634,5.872-5.872S326.287,157.77,323.049,157.77z"/>
					</g>
					<g>
						<g>
							
								<rect x="319.302" y="162.99" transform="matrix(0.7071 -0.7071 0.7071 0.7071 -21.0936 276.3602)" style="fill:#E0E0E0;" width="7.496" height="1.305"/>
						</g>
						<g>
							
								<rect x="322.397" y="159.894" transform="matrix(0.7071 -0.7071 0.7071 0.7071 -21.0904 276.37)" style="fill:#E0E0E0;" width="1.305" height="7.496"/>
						</g>
					</g>
				</g>
				<g>
					<path style="fill:#E0E0E0;" d="M306.646,313.004h-48.644c-5.523,0-10-4.477-10-10l0,0c0-5.523,4.477-10,10-10h48.644
						c5.523,0,10,4.477,10,10l0,0C316.646,308.527,312.169,313.004,306.646,313.004z"/>
					<path style="fill:#407BFF;" d="M305.579,311.174h-48.644c-5.523,0-10-4.477-10-10l0,0c0-5.523,4.477-10,10-10h48.644
						c5.523,0,10,4.477,10,10l0,0C315.579,306.697,311.101,311.174,305.579,311.174z"/>
					<text transform="matrix(1 0 0 1 257.9149 305.1393)" style="fill:#FFFFFF; font-family:'Montserrat-Bold'; font-size:11px;">ACCEPT</text>
				</g>
			</g>
			<g>
				<rect x="251.874" y="257.607" style="fill:#E0E0E0;" width="55.389" height="3"/>
			</g>
			<g>
				<rect x="251.84" y="278.159" style="fill:#F5F5F5;" width="55.39" height="3"/>
			</g>
			<g>
				<rect x="240.576" y="264.947" style="fill:#E0E0E0;" width="77.985" height="5"/>
			</g>
		</g>
	</g>
</g>
<g id="Character_2">
	<g>
		<circle style="fill:#407BFF;" cx="279.568" cy="209.369" r="43.16"/>
		<circle style="opacity:0.6;fill:#FFFFFF;" cx="279.568" cy="209.369" r="43.16"/>
		<g>
			<g>
				<path style="fill:#FFC3BD;" d="M229.701,226.705c0,0-2.332-1.147-3.423-0.748c-1.091,0.4-7.98,7.878-7.954,8.87
					c0.026,0.991,4.451,1.45,5.872,1.03c1.42-0.42,6.377-6.163,6.612-6.75L229.701,226.705z"/>
				<path style="fill:#FFC3BD;" d="M226.829,229.474c0,0-2.482-1.117-2.695-2.154c-0.151-0.734-2.469-0.025-3.075-0.465
					c-0.518-0.376-0.411-0.694-0.411-0.694c2.934-0.535,5.33-2.172,9.134,0.445L226.829,229.474z"/>
			</g>
			<g>
				<path style="fill:#407BFF;" d="M230.438,230.943c8.903,0.521,17.624,0.121,21.557-0.537
					c6.483-1.085,10.306-16.574,10.306-16.574s15.861-30.64-0.461-19.731c-2.822,1.525-8.104,11.204-10.279,18.772
					c-2.175,7.568-2.459,8.608-4.594,9.142c-0.909,0.227-15.788,2.669-18.305,3.148L230.438,230.943z"/>
			</g>
			<g style="opacity:0.3;">
				<path d="M230.438,230.943c8.903,0.521,17.624,0.121,21.557-0.537c6.483-1.085,10.306-16.574,10.306-16.574
					s15.861-30.64-0.461-19.731c-2.822,1.525-8.104,11.204-10.279,18.772c-2.175,7.568-2.459,8.608-4.594,9.142
					c-0.909,0.227-15.788,2.669-18.305,3.148L230.438,230.943z"/>
			</g>
			<path style="opacity:0.5;" d="M258.538,223.884c2.428-4.648,3.763-10.053,3.763-10.053s0.066-0.128,0.184-0.362l-2.933-5.109
				L258.538,223.884z"/>
			<path style="fill:#407BFF;" d="M299.28,247.76c-1.37-12.077-4.888-43.453-5.302-50.766c-0.516-9.107-5.955-9.911-17.595-8.437
				c-11.641,1.473-14.722,6.281-17.126,13.088c-2.317,6.561,4.089,20.964,6.732,48.691c4.271,1.415,8.833,2.192,13.579,2.192
				C286.673,252.529,293.37,250.801,299.28,247.76z"/>
			<path style="opacity:0.3;" d="M299.28,247.76c-1.37-12.077-4.888-43.453-5.302-50.766c-0.516-9.107-5.955-9.911-17.595-8.437
				c-11.641,1.473-14.722,6.281-17.126,13.088c-2.317,6.561,4.089,20.964,6.732,48.691c4.271,1.415,8.833,2.192,13.579,2.192
				C286.673,252.529,293.37,250.801,299.28,247.76z"/>
			<g>
				<path style="fill:#FFC3BD;" d="M276.496,174.967c-0.023,4.657,0.348,11.392,3.978,13.622c0,0,0.686,4.588-10.814,12.512
					c-5.703-5.433-2.886-9.191-2.886-9.191c4.693-2.378,4.178-4.369,2.678-7.631L276.496,174.967z"/>
				<path style="opacity:0.2;enable-background:new    ;" d="M273.633,178.725l-4.128,5.543c0.363,0.753,0.658,1.541,0.881,2.355
					c1.833-0.727,4.473-3.057,4.486-5.223C274.688,180.405,274.262,179.486,273.633,178.725z"/>
				<path style="fill:#FFC3BD;" d="M280.797,165.929c-0.598,7.786-0.697,11.077-4.595,15.169
					c-5.865,6.165-15.035,4.136-16.711-3.559c-1.497-6.937-0.259-18.542,7.222-21.799c5.328-2.384,11.335,0.027,13.417,5.386
					C280.717,162.634,280.945,164.279,280.797,165.929z"/>
				<path style="fill:#263238;" d="M268.681,168.305c-0.018,0.632-0.354,1.156-0.752,1.172c-0.398,0.016-0.724-0.498-0.717-1.127
					c0.007-0.63,0.354-1.156,0.752-1.172C268.362,167.163,268.659,167.706,268.681,168.305z"/>
				<path style="fill:#263238;" d="M261.711,168.519c-0.016,0.643-0.354,1.156-0.752,1.172c-0.398,0.016-0.724-0.498-0.717-1.127
					c0.007-0.63,0.354-1.156,0.754-1.161C261.396,167.398,261.718,167.889,261.711,168.519z"/>
				<path style="fill:#ED893E;" d="M263.841,169.603c-0.579,1.46-1.346,2.84-2.281,4.104c0.633,0.443,1.435,0.573,2.198,0.359
					L263.841,169.603z"/>
				<path style="fill:#263238;" d="M267.073,176.442c-0.301,0.058-0.606,0.09-0.91,0.094c-0.098,0.007-0.18-0.069-0.182-0.17
					c0-0.002,0-0.004,0-0.006c0.008-0.103,0.093-0.185,0.194-0.187c1.555-0.013,3.046-0.783,4.017-2.074
					c0.056-0.088,0.169-0.115,0.252-0.062c0.083,0.054,0.105,0.168,0.048,0.256C269.661,175.441,268.428,176.216,267.073,176.442z"
					/>
				<path style="fill:#263238;" d="M271.51,166.789c-0.157,0.033-0.311-0.043-0.379-0.187c-0.653-0.992-1.693-1.64-2.87-1.788
					c-0.2-0.022-0.337-0.207-0.307-0.413c0.03-0.201,0.212-0.346,0.407-0.325c0.004,0,0.009,0.001,0.013,0.002
					c1.416,0.167,2.663,0.962,3.414,2.178c0.085,0.178,0.009,0.4-0.169,0.495l0,0C271.585,166.774,271.548,166.787,271.51,166.789z"
					/>
				<path style="fill:#263238;" d="M259.678,165.283c-0.131,0.024-0.262-0.024-0.345-0.125c-0.122-0.156-0.095-0.39,0.061-0.526
					c0.904-0.827,2.13-1.157,3.27-0.88c0.183,0.047,0.287,0.239,0.233,0.429c-0.003,0.01-0.006,0.019-0.009,0.028
					c-0.062,0.195-0.264,0.307-0.451,0.253c-0.002,0-0.003-0.001-0.005-0.002l0,0c-0.897-0.184-1.846,0.087-2.554,0.728
					C259.821,165.239,259.752,165.273,259.678,165.283z"/>
			</g>
			<path style="opacity:0.5;" d="M294.067,198.308l-3.372-1.216l-3.008,3.104l7.971,14.635
				C294.928,207.863,294.321,201.724,294.067,198.308z"/>
			<path style="fill:#FFC3BD;" d="M302.264,234.941l-2.147,4.786c0,0-5.036,2.479-5.641,4.182c-0.605,1.703-3.341,5.517-0.306,6.451
				c3.035,0.934,5.955-0.104,7.539-2.66c1.584-2.557,2.202-4.16,2.124-5.372l3.43-6.158L302.264,234.941z"/>
			<path style="fill:#263238;" d="M266.078,153.263c-2.401,0.817-10.331,4.908-5.222,9.703c0,0,5.492-1.984,9.158,0.013
				c0,0-0.614-3.842,2.166-4.586c0,0-2.992,4.992,1.804,8.495c4.796,3.503,1.969,6.409,1.969,6.409s2.009,0.395,2.827-2.906
				c0,0,1.731,2.598,2.061,2.048C294.256,150.012,272.711,151.006,266.078,153.263z"/>
			<path style="fill:#FFC3BD;" d="M282.754,171.846c-0.501,1.405-1.514,2.576-2.819,3.258c-1.746,0.88-2.907-0.593-2.664-2.454
				c0.233-1.673,1.413-4.147,3.277-4.289c1.355-0.058,2.448,1.019,2.443,2.407C282.99,171.137,282.909,171.505,282.754,171.846z"/>
			<g>
				<path style="fill:#407BFF;" d="M286.377,188.106c0,0,8.296,0.073,20.049,19.799C318.18,227.631,306.412,239,306.412,239
					l-5.336-3.502c0,0,3.561-9.309,1.931-13.803c-1.63-4.494-8.844-13.657-8.844-13.657S276.485,189.42,286.377,188.106z"/>
			</g>
			<g style="opacity:0.3;">
				<path d="M286.377,188.106c0,0,8.296,0.073,20.049,19.799C318.18,227.631,306.412,239,306.412,239l-5.336-3.502
					c0,0,3.561-9.309,1.931-13.803c-1.63-4.494-8.844-13.657-8.844-13.657S276.485,189.42,286.377,188.106z"/>
			</g>
		</g>
	</g>
</g>
<g id="Character_1">
	<g>
		<g>
			<g>
				<polygon style="fill:#E4897B;" points="199.747,204.497 201.429,200.563 205.238,201.65 202.874,206.938 				"/>
				<path style="fill:#E4897B;" d="M204.184,202.558c0,0,2.442-0.889,2.909-1.952c0.467-1.064,1.082-8.263,0.349-8.931
					c-0.733-0.667-4.997,0.466-5.677,1.782c-0.68,1.316-0.863,7.389-0.602,7.964L204.184,202.558z"/>
			</g>
			<path style="fill:#263238;" d="M160.195,157.464c0,0,5.024-6.433,13.94-3.143c8.916,3.29,9.793,16.836,8.672,23.823
				c-1.12,6.987-2.154,18.096-0.71,19.22c0,0-6.936,1.884-11.249-1.129c-4.313-3.013-4.095-15.578-4.095-15.578l1.698-6.497
				L160.195,157.464z"/>
			<g>
				<g>
					<polygon style="fill:#FFB573;" points="174.79,393.863 174.552,407.247 181.596,406.824 182.463,394.701 					"/>
					<path style="fill:#263238;" d="M182.867,405.977l-8.892-0.159c-0.335-0.006-0.63,0.221-0.709,0.547l-1.737,7.205
						c-0.159,0.638,0.23,1.284,0.868,1.443c0.082,0.02,0.166,0.032,0.25,0.035c3.206,0.002,6.06-0.123,10.051-0.046
						c4.709,0.086,3.504,0.628,9.04,0.806c3.335,0.104,4.014-3.677,2.603-3.889c-6.46-0.931-7.097-2.898-9.553-5.26
						C184.253,406.204,183.569,405.961,182.867,405.977z"/>
					<polygon style="opacity:0.2;" points="174.753,395.974 174.663,400.988 181.996,401.221 182.284,397.195 					"/>
					<polygon style="fill:#FFB573;" points="143.367,391.509 141.626,404.782 148.673,405.153 150.896,393.204 					"/>
					<path style="fill:#263238;" d="M150.032,404.454l-8.818-1.158c-0.332-0.044-0.65,0.149-0.766,0.464l-2.536,6.964
						c-0.229,0.616,0.084,1.302,0.7,1.531c0.079,0.029,0.161,0.05,0.245,0.063c3.186,0.362,6.035,0.559,9.992,1.084
						c4.67,0.615,3.412,1.018,8.892,1.817c3.302,0.478,4.402-3.203,3.023-3.572c-6.314-1.651-6.726-3.677-8.901-6.3
						C151.383,404.835,150.731,404.517,150.032,404.454z"/>
					<polygon style="opacity:0.2;" points="143.092,393.602 142.44,398.576 149.701,399.63 150.439,395.662 					"/>
				</g>
				<path style="fill:#263238;" d="M184.38,242.771c0,0,7.749,62.854,6.199,75.252c-1.55,12.398-7.232,81.107-7.232,81.107h-9.815
					c0,0-3.444-59.237,0-82.485c0,0-9.127-53.383-8.094-66.814C166.471,236.399,183.77,238.306,184.38,242.771z"/>
				<path style="opacity:0.3;" d="M172.071,307.783c2.17-21.019-2.388-44.864-2.388-44.864l-3.147,5.545
					C167.999,281.713,170.49,297.946,172.071,307.783z"/>
				<path style="fill:#263238;" d="M170.394,271.959c0.028,18.639-0.186,40.882-1.816,47.567
					c-2.961,12.139-17.507,77.711-17.507,77.711l-9.751-1.125c0,0,4.401-57.327,10.487-80.026c0,0-1.283-21.469-1.42-41.284
					c0,0-5.845-16.015,1.586-35.98c0,0,16.578-4.702,21.844,1.949C173.816,240.77,170.382,263.951,170.394,271.959z"/>
			</g>
			<path style="fill:#407BFF;" d="M178.04,194.495c0,0,6.891,0.586,10.665,12.539c3.773,11.953,2.815,10.154,2.815,10.154
				l7.983-14.376l5.134,2.523c0,0-7.825,24.388-12.352,28.734c-4.527,4.346-11.362-5.016-11.63-6.683
				c-0.268-1.667-1.616-22.163-1.616-22.163L178.04,194.495z"/>
			<path style="opacity:0.1;" d="M178.04,194.495c0,0,6.891,0.586,10.665,12.539c3.773,11.953,2.815,10.154,2.815,10.154
				l7.983-14.376l5.134,2.523c0,0-7.825,24.388-12.352,28.734c-4.527,4.346-11.362-5.016-11.63-6.683
				c-0.268-1.667-1.616-22.163-1.616-22.163L178.04,194.495z"/>
			<path style="fill:#263238;" d="M160.195,157.955c0,0-5.984-1.44-7.566,13.476c-1.767,16.654,3.458,27.798,13.512,27.703
				c0,0-1.592-12.856-0.802-16.738c0.79-3.883-1.529-20.674-1.529-20.674L160.195,157.955z"/>
			<g>
				<path style="fill:#407BFF;" d="M184.981,249.955l-35.744-1.331c0.147-9.16,2.639-31.492,1.797-36.112
					c-0.452-2.469-0.955-5.12-1.526-7.976c-0.427-2.165-0.889-4.466-1.408-6.895c4.174-1.317,8.397-2.272,12.658-2.845
					c4.495-0.669,9.026-0.943,13.54-0.828c1.069,0.062,2.026,0.177,2.876,0.322c3.41,0.583,6.138,3.6,7.039,7.662
					c0.397,1.787,0.812,3.98,1.175,6.565C186.352,215.373,187.964,223.842,184.981,249.955z"/>
			</g>
			<g style="opacity:0.2;">
				<path d="M184.981,249.955l-35.744-1.331c0.147-9.16,2.639-31.492,1.797-36.112c-0.452-2.469-0.955-5.12-1.526-7.976
					c-0.427-2.165-0.889-4.466-1.408-6.895c4.174-1.317,8.397-2.272,12.658-2.845c4.495-0.669,9.026-0.943,13.54-0.828
					c1.069,0.062,2.026,0.177,2.876,0.322c3.41,0.583,6.138,3.6,7.039,7.662c0.397,1.787,0.812,3.98,1.175,6.565
					C186.352,215.373,187.964,223.842,184.981,249.955z"/>
			</g>
			<path style="fill:#E4897B;" d="M171.384,199.134c-7.304-1.442-9.305-4.739-9.305-4.739c4.973-4.094,1.607-12,1.607-12
				l8.756,2.256c-0.332,1.449-0.515,2.672-0.599,3.71c-0.432,5.378,1.999,5.595,1.999,5.595
				C175.201,196.978,171.384,199.134,171.384,199.134z"/>
			<path style="opacity:0.2;enable-background:new    ;" d="M172.442,184.652c-0.332,1.449-0.515,2.672-0.599,3.71
				c-5.99-0.406-8.157-5.966-8.157-5.966L172.442,184.652z"/>
			<path style="fill:#E4897B;" d="M169.219,159.523c7.738,0.1,10.175,4.274,10.639,12.255c0.58,9.974-1.72,17.025-11.367,14.772
				C155.388,183.49,156.369,159.357,169.219,159.523z"/>
			<path style="fill:#DE5753;" d="M174.298,171.281c0,0,1.046,2.035,2.21,3.238c0,0-0.676,1.044-2.051,0.849L174.298,171.281z"/>
			
				<path style="fill:none;stroke:#263238;stroke-width:0.6166;stroke-linecap:round;stroke-linejoin:round;stroke-miterlimit:10;" d="
				M170.124,165.985c0,0-2.171-0.311-3.371,1.126"/>
			
				<path style="fill:none;stroke:#263238;stroke-width:0.6166;stroke-linecap:round;stroke-linejoin:round;stroke-miterlimit:10;" d="
				M175.403,165.562c0,0,1.373-0.488,3.075,0.676"/>
			<path style="fill:#263238;" d="M160.595,172.455c0,0,5.587-5.591,5.102-10.506c0,0,13.526-6.786,14.083,8.787
				c0,0,1.676-13.8-11.621-14.279c-13.276-0.478-13.491,18.981-6.696,24.867C161.462,181.324,158.305,176.402,160.595,172.455z"/>
			<path style="fill:#E4897B;" d="M161.837,174.105c-0.036-1.246-1.294-3.371-3.614-3.149c-2.401,0.231-3.607,5.138,2.342,6.399
				C161.419,177.536,161.912,176.705,161.837,174.105z"/>
			<g>
				<path style="fill:#263238;" d="M176.737,177.964c-0.099,1.03,0.077,2.834,0.077,2.834c-0.161,0.046-0.321,0.091-0.484,0.128
					c-2.193,0.561-3.396,0.096-4.064-0.589c-0.364-0.376-0.565-0.825-0.678-1.204c-0.135-0.437-0.132-0.78-0.132-0.78
					c1.34,0.397,3.425,0.033,4.531-0.209C176.45,178.047,176.737,177.964,176.737,177.964z"/>
				<path style="fill:#FFFFFF;" d="M176.001,178.144v0.836c-1.86,0.523-3.564,0.614-4.371,0.153c-0.135-0.437-0.146-0.78-0.146-0.78
					C172.824,178.75,175.07,178.385,176.001,178.144z"/>
				<path style="fill:#DE5753;" d="M176.33,180.926c-2.193,0.561-3.396,0.096-4.064-0.589c0.755-0.162,1.683-0.274,2.559-0.14
					C175.495,180.297,175.975,180.592,176.33,180.926z"/>
			</g>
			
				<path style="fill:none;stroke:#263238;stroke-width:0.4254;stroke-linecap:round;stroke-linejoin:round;stroke-miterlimit:10;" d="
				M178.717,169.535c0,0-1.458-1.221-2.457,0.437"/>
			
				<path style="fill:none;stroke:#263238;stroke-width:0.4254;stroke-linecap:round;stroke-linejoin:round;stroke-miterlimit:10;" d="
				M172.108,170.154c0,0-2.324-1.834-3.803,0.793"/>
			<path style="fill:#263238;" d="M163.809,161.23c0,0,8.388,3.614,14.492,2.518c6.104-1.096-5.258-6.325-5.258-6.325l-5.811-0.397
				L163.809,161.23z"/>
			<g>
				<path style="fill:#263238;" d="M165.852,160.513c0.225,0.367,0.27,0.596,0.358,0.889c0.078,0.278,0.124,0.557,0.172,0.835
					c0.065,0.558,0.109,1.116,0.078,1.669c-0.038,1.107-0.245,2.191-0.545,3.237c-0.31,1.045-0.729,2.047-1.209,3.014
					c-0.236,0.485-0.518,0.946-0.774,1.419l-0.867,1.36l0.771-1.413c0.223-0.488,0.471-0.962,0.672-1.458
					c0.409-0.987,0.753-1.998,0.985-3.032c0.222-1.034,0.349-2.087,0.314-3.128c-0.005-0.521-0.083-1.034-0.175-1.537
					c-0.061-0.247-0.118-0.495-0.202-0.73c-0.069-0.218-0.199-0.504-0.263-0.59L165.852,160.513z"/>
			</g>
			<g>
				<path style="fill:#263238;" d="M165.056,160.654c0.366,0.28,0.556,0.496,0.823,0.736c0.25,0.232,0.503,0.459,0.761,0.679
					c0.518,0.438,1.058,0.852,1.633,1.214c1.142,0.732,2.424,1.275,3.799,1.458c-1.386-0.036-2.759-0.448-4.013-1.078
					c-0.631-0.31-1.233-0.678-1.814-1.073c-0.29-0.198-0.575-0.404-0.854-0.614c-0.266-0.198-0.583-0.454-0.781-0.572
					L165.056,160.654z"/>
			</g>
			<g>
				<g>
					<path style="fill:#E4897B;" d="M217.584,230.025c0,0,1.577-2.066,2.731-2.194c1.155-0.128,10.045,1.216,10.464,2.115
						c0.419,0.899-3.77,4.846-5.229,5.102c-1.459,0.256-6.818-0.423-7.289-0.843L217.584,230.025z"/>
					<path style="fill:#E4897B;" d="M221.39,231.224c0,0,1.896-1.169,1.626-2.193c-0.192-0.724,1.484,0.454,1.83-0.21
						c0.296-0.567-0.744-2.059-0.744-2.059c-1.297-0.172-4.127,0.153-6.633,3.21L221.39,231.224z"/>
					<path style="fill:#E4897B;" d="M217.596,229.972l-5.501,1.866c0,0,0.674,4.548,0.954,4.436
						c0.281-0.112,6.925-2.798,6.925-2.798L217.596,229.972z"/>
				</g>
				<path style="fill:#407BFF;" d="M148.474,197.501c0,0-4.663,2.123-3.519,9.393c1.856,11.793,31.968,36.476,37.78,36.79
					c5.811,0.314,33.408-6.766,33.453-7.237c0.046-0.471-1.673-6.44-1.673-6.44s-27.09,2.77-31.017,1.043
					C179.571,229.322,160.021,196.627,148.474,197.501z"/>
				<path style="opacity:0.1;" d="M148.474,197.501c0,0-4.663,2.123-3.519,9.393c1.856,11.793,31.968,36.476,37.78,36.79
					c5.811,0.314,33.408-6.766,33.453-7.237c0.046-0.471-1.673-6.44-1.673-6.44s-27.09,2.77-31.017,1.043
					C179.571,229.322,160.021,196.627,148.474,197.501z"/>
			</g>
		</g>
	</g>
</g>
</svg>
