<svg width="168" height="141" viewBox="0 0 168 141" fill="none" xmlns="http://www.w3.org/2000/svg">
<ellipse cx="94.6012" cy="69.7859" rx="63.7313" ry="63.8044" fill="#F8F5FF"/>
<path d="M17.711 59.8172C17.1155 60.581 16.6604 61.6409 17.111 63.008C17.5616 64.3752 19.9595 69.6924 20.5595 71.2133C21.1596 72.7318 23.8586 79.4185 24.1575 80.9349C24.4386 82.363 25.6453 82.3156 25.7925 82.3043C25.8037 82.3043 25.8126 82.3088 25.8149 82.3178C26.0691 82.8444 33.3231 97.9894 34.2064 100.08C35.1076 102.208 40.3562 114.059 41.1035 115.272C41.8552 116.488 43.2047 116.185 44.4048 116.337C45.6026 116.49 91.7964 118.617 94.4954 118.617C97.1945 118.617 99.4451 117.401 100.643 115.729C101.843 114.059 111.441 101.598 115.042 96.4347C118.642 91.2711 126.891 81.0885 127.638 79.8728C128.387 78.6592 128.838 76.9848 127.937 74.1013C127.051 71.2517 116.382 45.7727 116.097 45.0947C116.094 45.088 116.094 45.0744 116.101 45.0699C116.215 44.9456 117.259 43.7502 116.69 41.739C116.092 39.6102 109.193 21.8348 108.894 21.3783C108.595 20.9219 107.843 19.7084 105.744 19.5547C103.643 19.4055 60.3024 20.619 58.2011 20.619C56.1021 20.619 55.0515 21.0755 53.2514 22.8992C51.4513 24.7228 39.9056 35.6602 38.855 37.181C37.8066 38.6996 21.6101 54.805 17.711 59.8172Z" fill="#6B39F4"/>
<path d="M94.4954 118.636C92.0953 118.636 45.7476 116.526 44.4025 116.356C44.126 116.32 43.8382 116.311 43.5616 116.3C42.6314 116.264 41.6678 116.227 41.0856 115.281C41.0812 115.274 41.0812 115.265 41.0856 115.258C41.0901 115.251 41.0968 115.247 41.1035 115.247C41.1057 115.247 41.1057 115.247 41.1057 115.247C41.563 115.265 86.8823 117.088 93.7169 117.088C94.1051 117.088 94.3683 117.082 94.4932 117.07C97.3528 116.806 99.1641 115.925 100.552 114.117C101.952 112.289 123.991 82.3533 128.392 76.3694C128.396 76.3626 128.403 76.3604 128.41 76.3604C128.412 76.3604 128.414 76.3604 128.416 76.3604C128.425 76.3626 128.432 76.3716 128.432 76.3807C128.546 77.7298 128.298 78.8416 127.658 79.8811C127.355 80.3737 125.822 82.3329 123.882 84.8164C121.064 88.4231 117.205 93.3629 115.059 96.443C112.595 99.9773 107.339 106.91 103.857 111.498C102.285 113.572 101.042 115.211 100.661 115.739C99.3805 117.527 97.0182 118.636 94.4954 118.636Z" fill="#1E293B"/>
<path d="M74.0986 61.8919C71.6003 61.7899 56.2024 62.0959 56.2024 62.0959" stroke="#0F172A" stroke-width="0.5" stroke-linecap="round" stroke-linejoin="round"/>
<path d="M107.292 21.2764C107.292 21.2764 78.6982 59.5638 77.9978 60.4745" stroke="#0F172A" stroke-width="0.5" stroke-linecap="round" stroke-linejoin="round"/>
<path d="M18.7102 61.2852L37.3068 61.9947" stroke="#0F172A" stroke-width="0.5" stroke-linecap="round" stroke-linejoin="round"/>
<path d="M25.8101 82.3003C25.8101 82.3003 74.9237 84.2776 80.324 84.2776C85.7243 84.2776 85.9474 84.0493 89.5453 80.6303C93.1456 77.2112 116.092 45.0771 116.092 45.0771" stroke="#0F172A" stroke-width="0.5" stroke-linecap="round" stroke-linejoin="round"/>
<path d="M88.562 19.7526C88.5665 19.7661 88.5598 19.782 88.5464 19.7842C88.3457 19.8226 87.0742 20.1164 86.2467 21.3751C85.3812 22.6926 76.0282 32.1814 75.339 32.8819C75.3256 32.8955 75.3367 32.9203 75.3568 32.9203C76.4587 32.8842 93.2285 32.3147 95.6955 32.3147C98.2429 32.3147 100.344 33.2254 101.245 35.9597C102.144 38.6963 107.393 52.5217 107.993 54.6481C108.593 56.7746 109.193 58.4468 109.793 60.2704C110.393 62.0941 120.141 85.9461 120.44 87.4669C120.739 88.9855 120.44 90.3526 119.541 91.7198C118.64 93.0892 113.467 100.305 112.641 101.218C111.925 102.006 111.209 101.997 111.035 101.981C111.018 101.979 111.006 101.959 111.02 101.945C111.172 101.755 111.937 100.761 111.667 100.079C111.368 99.3172 99.9694 70.8304 99.5188 68.9299C99.0682 67.0294 91.7206 51.6855 90.8194 49.8619C89.9182 48.0383 87.072 46.5219 84.4465 46.2169C81.8635 45.9186 67.8039 45.7649 67.3623 45.7604C67.3556 45.7604 67.3489 45.7649 67.3444 45.7694C67.0411 46.1378 56.9074 58.6208 55.6516 60.119C54.3779 61.6376 54.3779 64.146 55.2032 66.8035C56.0285 69.461 60.0013 80.2492 60.9002 82.6807C61.8014 85.1122 62.475 84.5789 63.2267 86.7076C63.9762 88.8341 73.3492 112.917 74.0987 115.194C74.7835 117.276 76.8446 117.836 77.1971 117.917C77.2171 117.922 77.2216 117.949 77.2037 117.958C77.0275 118.062 76.2468 118.372 73.3492 118.308C69.8985 118.232 61.5002 117.701 59.4771 117.701C57.4539 117.701 57.3781 116.941 56.4769 115.194C55.578 113.448 44.6301 86.7822 43.2047 84.7303C41.7794 82.6807 41.7058 82.0705 40.731 79.108C39.754 76.1454 35.8571 66.1188 35.3329 64.0669C34.8065 62.0173 35.8571 60.119 37.0549 58.5236C38.2149 56.9802 47.8667 46.4089 48.4958 45.7197C48.5091 45.7062 48.5002 45.6836 48.4801 45.6813C47.6169 45.6293 35.1835 44.852 33.1558 44.9243C31.2442 44.9943 30.5772 45.8802 30.4724 46.0406C30.4635 46.0519 30.4456 46.0542 30.4367 46.0429C30.3408 45.9321 29.9683 45.3762 30.8338 44.165C31.8063 42.7978 38.5561 35.7337 40.0551 34.5926C41.5541 33.4536 43.7289 33.2254 45.0785 33.2254C46.4079 33.2254 60.2422 33.0785 60.666 33.074C60.6727 33.074 60.6771 33.0717 60.6816 33.0672C60.9738 32.7305 70.7439 21.5107 72.0733 20.3876C73.4229 19.2486 74.8482 19.4769 76.0483 19.4769C77.2484 19.4769 86.173 19.0972 87.2973 19.1718C88.2698 19.2373 88.5107 19.6464 88.562 19.7526Z" fill="#1DCE5C"/>
<path d="M99.6994 69.5337C99.6904 69.5337 99.6815 69.5269 99.6793 69.5178C99.5811 69.2331 99.5209 69.0433 99.4964 68.9371C99.0792 67.1767 92.7041 53.8079 91.1494 50.5922C91.145 50.5831 91.145 50.5741 91.1539 50.5673C91.1561 50.5628 91.165 50.5605 91.1717 50.5605C91.174 50.5605 91.1762 50.5605 91.1806 50.5628L98.3008 53.8711C98.303 53.8689 98.3565 53.8643 98.4413 53.8643C98.9699 53.8643 100.828 54.0112 102.61 55.9027C104.254 57.645 107.25 61.4482 108.463 62.9984C108.562 63.1249 108.577 63.2854 108.51 63.43C108.443 63.5724 108.303 63.6628 108.149 63.6628C108.149 63.6628 108.124 63.6605 108.111 63.6605L101.209 63.0323L99.7217 69.5156C99.7194 69.5269 99.7105 69.5337 99.7016 69.5337C99.7016 69.5337 99.7016 69.5337 99.6994 69.5337Z" fill="#0F172A"/>
<path d="M55.0961 90.5776C55.0872 90.5753 55.0805 90.5663 55.0805 90.5572C54.8797 88.2839 54.331 83.9835 53.6708 83.9835C53.5905 83.9835 53.5057 84.0513 53.4232 84.1869C52.4283 85.7959 48.7456 86.7201 48.7099 86.7292C48.7076 86.7314 48.7054 86.7314 48.7032 86.7314C48.6965 86.7314 48.6898 86.7269 48.6876 86.7224C48.6809 86.7156 48.6809 86.7066 48.6853 86.6975C49.8653 84.4038 48.5961 80.8763 48.585 80.8424L49.6824 47.3276L47.2511 47.1107C47.2421 47.1084 47.2354 47.1039 47.2287 47.0949C47.2265 47.0881 47.2287 47.079 47.2354 47.0723C47.9024 46.3378 48.3597 45.8384 48.4801 45.7074C48.3374 45.6983 47.8667 45.6689 47.1774 45.626C47.1707 45.626 47.1641 45.6215 47.1596 45.6124C47.1551 45.6057 47.1551 45.5966 47.1596 45.5898L48.1857 43.9515L61.7991 41.1064L73.0012 42.1166L81.4129 46.0237C81.4218 46.0282 81.4285 46.0373 81.4263 46.0486C81.424 46.0599 81.4129 46.0667 81.404 46.0667C81.404 46.0667 81.404 46.0667 81.4017 46.0667C76.3628 45.8791 67.4403 45.7864 67.3511 45.7842C67.2641 45.9062 56.9297 58.631 55.6694 60.1361C54.4872 61.5439 54.3288 63.9122 55.2255 66.7979C55.9281 69.0645 58.9082 77.1997 60.1551 80.5916C58.4465 86.8964 55.1519 90.5369 55.1184 90.5708C55.114 90.5753 55.1095 90.5776 55.1028 90.5776C55.1006 90.5798 55.0983 90.5776 55.0961 90.5776Z" fill="#0F172A"/>
<path d="M99.994 50.4478C98.5954 48.4207 97.3953 44.369 95.3967 42.7487C93.398 41.1284 91.2968 39.811 85.1983 39.3048C79.4991 38.8302 73.5434 38.0054 72.7805 37.8992C72.7582 37.8947 72.7537 37.8631 72.776 37.854C73.7843 37.4292 84.5291 32.8757 89.1956 29.8838C94.0962 26.7449 97.2949 22.5915 94.7944 17.5273C92.2939 12.4631 88.6959 11.6519 85.4972 10.8429C82.2985 10.0316 80.6992 8.81583 79.198 8.20795C77.699 7.60233 73.0995 8.00458 71.1008 11.5502C69.1022 15.0958 65.7005 25.2241 65.3012 27.1494C64.922 28.9663 63.8893 29.9041 63.7777 30.0013C63.771 30.0081 63.7621 30.0081 63.7554 30.0058C63.6149 29.9561 62.3301 29.5109 61.101 30.0871C59.8028 30.695 57.9023 31.7074 56.4033 32.3153C54.9021 32.9232 52.6046 33.9356 51.7034 34.3401C50.8558 34.722 50.0104 35.9106 49.9145 36.0507C49.9078 36.0575 49.8989 36.062 49.8899 36.0597C49.5687 35.9694 44.3625 34.4598 39.9057 31.8091C35.3062 29.0748 30.7067 31.5063 28.8084 34.1389C26.9102 36.7738 26.1094 37.9873 25.0097 39.2031C23.9078 40.4189 22.6073 41.4312 22.3084 45.1802C22.0095 48.9292 23.9078 51.5618 27.0083 53.2815C30.1089 55.0012 31.4071 54.8024 34.608 53.8894C37.6617 53.0194 46.7314 49.1959 47.5456 48.8501C47.5656 48.8433 47.5857 48.8637 47.5746 48.8817C47.2087 49.5687 43.6241 56.3209 42.1051 60.0677C40.5057 64.0178 44.706 74.8579 45.4064 76.5776C46.1046 78.2996 45.1053 85.5941 45.1053 86.1998C45.1053 86.8054 49.5553 84.8055 50.6863 81.7932C50.693 81.7729 50.7197 81.7728 50.7286 81.7909C52.8076 86.1184 53.1065 88.6313 53.6039 88.733C54.1036 88.8347 57.2019 84.8846 57.9023 79.4159C58.6027 73.945 56.1022 69.9926 55.4018 64.2211C54.7036 58.4474 54.7036 56.7254 56.2026 52.877C57.6257 49.2275 57.4294 46.8547 57.4049 46.6152C57.4049 46.6039 57.4116 46.5948 57.4227 46.5926C57.7997 46.4999 63.635 45.0356 65.3905 43.6684C65.3972 43.6617 65.4061 43.6616 65.4128 43.6639C70.1082 45.9937 74.7033 48.014 78.9994 49.3314C83.2978 50.6466 84.4979 52.572 87.5962 57.0282C90.6856 61.4687 94.8613 68.9215 97.1678 70.9824C97.1789 70.9937 97.199 70.9869 97.2035 70.9711C97.3574 70.3722 99.3984 62.4223 99.791 61.6947C99.7932 61.6902 99.7977 61.6857 99.8021 61.6834L107.661 58.2598C107.676 58.2531 107.681 58.2327 107.667 58.2214C107.228 57.8169 101.341 52.3957 99.994 50.4478ZM75.8989 22.0853C77.5964 18.7453 79.6931 14.7997 83.1885 13.5795C83.193 13.5772 83.1997 13.5795 83.2041 13.5817C85.3968 14.7003 85.3946 18.3431 82.6978 21.5791C80.1326 24.6592 74.043 27.7415 73.4474 28.0375C73.4274 28.0466 73.4073 28.0307 73.414 28.0104C73.5344 27.6285 74.3375 25.1563 75.8989 22.0853ZM36.3055 44.7735C33.5105 45.483 29.6137 45.2797 31.8019 40.6335C31.8041 40.6268 31.8131 40.62 31.8197 40.62C36.1471 40.342 42.8457 43.0063 43.6286 43.3249C43.6509 43.334 43.6464 43.3634 43.6241 43.3679C42.9996 43.465 38.8886 44.1204 36.3055 44.7735Z" fill="#1DCE5C"/>
<path d="M98.4412 66.2499C99.0123 64.128 99.6034 62.0241 99.793 61.6874L107.692 58.2458C107.692 58.2458 101.392 52.472 99.9937 50.4473C98.5951 48.4203 97.3951 44.3685 95.3964 42.7482C93.3978 41.1279 91.2966 39.8105 85.1981 39.3043C79.0996 38.7981 72.7 37.8874 72.7 37.8874C72.7 37.8874 78.9501 35.2661 84.2121 32.6289" stroke="#0F172A" stroke-width="0.5" stroke-linecap="round" stroke-linejoin="round"/>
<path d="M55.1277 61.7859C54.7396 57.8561 54.9381 56.1251 56.2029 52.8778C57.7019 49.0271 57.403 46.5979 57.403 46.5979C57.403 46.5979 63.6018 45.077 65.4019 43.6602C66.9879 44.4466 68.5649 45.2013 70.1241 45.9041" stroke="#0F172A" stroke-width="0.5" stroke-linecap="round" stroke-linejoin="round"/>
<path d="M44.4938 50.12C46.3028 49.3766 47.6033 48.8252 47.6033 48.8252C47.6033 48.8252 43.7042 56.1198 42.1048 60.0676C40.5055 64.0177 44.7057 74.8579 45.4061 76.5776C46.1043 78.2995 45.1028 85.5941 45.1028 86.1997C45.1028 86.8076 49.6019 84.7828 50.7038 81.7434C52.8051 86.1003 53.104 88.6312 53.6036 88.7329C54.1011 88.8346 57.2016 84.8845 57.902 79.4158C58.1719 77.3097 57.9667 75.4296 57.5741 73.5833" stroke="#0F172A" stroke-width="0.5" stroke-linecap="round" stroke-linejoin="round"/>
<path d="M49.9052 36.0655C49.9052 36.0655 46.595 35.1322 42.9524 33.417" stroke="#0F172A" stroke-width="0.5" stroke-linecap="round" stroke-linejoin="round"/>
<path d="M56.4033 32.3145C54.9021 32.9223 52.6046 33.9347 51.7034 34.3392C50.8045 34.746 49.9055 36.0634 49.9055 36.0634" stroke="#0F172A" stroke-width="0.5" stroke-linecap="round" stroke-linejoin="round"/>
<path d="M31.8063 40.6221C36.4081 40.317 43.7044 43.3564 43.7044 43.3564C43.7044 43.3564 39.1071 44.066 36.3055 44.7733C34.1708 45.3134 31.3959 45.3247 31.175 43.2322" stroke="#0F172A" stroke-width="0.5" stroke-linecap="round" stroke-linejoin="round"/>
<path d="M69.7778 38.7742C69.7688 38.7742 69.7622 38.7696 69.7577 38.7606L69.1777 37.5946L73.378 28.0515C73.4561 28.0086 80.0141 24.7658 82.6796 21.5637C84.2901 19.6316 85.0374 17.4305 84.6827 15.6769C84.4842 14.712 83.9689 13.9934 83.186 13.5979C83.1793 13.5934 83.1748 13.5866 83.1748 13.5776C83.1748 13.5686 83.1771 13.5618 83.186 13.5573C86.3423 11.7065 89.7975 12.45 92.8289 14.5312C93.5918 15.3741 94.2387 16.3481 94.8142 17.5187C97.0046 21.9501 95.1153 26.1171 89.2086 29.9045C84.5712 32.8761 73.7996 37.4477 72.7846 37.877L72.8337 37.8838C72.8449 37.8838 72.8516 37.8951 72.8516 37.9064C72.8516 37.9177 72.8449 37.9268 72.8337 37.929C70.0053 38.3561 69.7956 38.668 69.8001 38.7516C69.8001 38.7606 69.7934 38.7696 69.7822 38.7742C69.78 38.7742 69.7778 38.7742 69.7778 38.7742Z" fill="#0F172A"/>
<path d="M72.7848 37.8744L72.8339 37.8811C72.8451 37.8811 72.8518 37.8924 72.8518 37.9037C72.854 37.915 72.8451 37.9241 72.8339 37.9263C70.0055 38.3534 69.7958 38.663 69.8003 38.7466C69.8003 38.7579 69.7936 38.767 69.7824 38.7715C69.7802 38.7715 69.7802 38.7715 69.778 38.7715C69.7691 38.7715 69.7624 38.767 69.7579 38.7579L69.1802 37.5919L73.3782 28.0488" stroke="#0F172A" stroke-width="0.5" stroke-linecap="round" stroke-linejoin="round"/>
<path d="M83.1862 13.5979C83.1795 13.5934 83.175 13.5866 83.175 13.5776C83.175 13.5708 83.1773 13.5618 83.1862 13.5573C86.3425 11.7065 89.7977 12.45 92.8291 14.5312" stroke="#0F172A" stroke-width="0.5" stroke-linecap="round" stroke-linejoin="round"/>
<path d="M31.0321 54.5999C29.8298 54.5999 28.6588 54.2247 26.997 53.3005C23.5908 51.409 22.0048 48.6747 22.2859 45.1766C22.3907 43.8794 22.6205 42.8219 22.9886 41.9451C24.86 39.7689 29.2075 39.9791 31.8106 40.5982C31.8173 40.6005 31.824 40.6028 31.8262 40.6095C31.8285 40.6163 31.8285 40.6231 31.8262 40.6299C31.1169 42.1372 30.992 43.2829 31.4626 44.0354C31.9868 44.8783 33.1512 45.0545 34.0368 45.0545C34.7283 45.0545 35.5112 44.9506 36.3008 44.7495C38.9151 44.0874 43.1555 43.4162 43.6329 43.3416C47.3892 44.3427 50.2846 45.7505 50.3136 45.7641L51.121 47.0906C51.1255 47.0951 51.1255 47.1019 51.1233 47.1087C51.121 47.1155 51.1188 47.12 51.1121 47.1222L47.2286 49.0069C45.6203 49.6848 37.4585 53.0994 34.6123 53.9106C33.2404 54.3016 32.1028 54.5999 31.0321 54.5999Z" fill="#0F172A"/>
<path d="M65.4019 43.6592C65.4019 43.6592 67.6525 42.2672 69.0757 40.9C70.4988 39.5329 69.756 38.751 69.756 38.751" stroke="#0F172A" stroke-width="0.5" stroke-linecap="round" stroke-linejoin="round"/>
<path d="M63.7664 30.0078C63.7664 30.0078 67.1547 35.0833 69.1778 37.5916" stroke="#0F172A" stroke-width="0.5" stroke-linecap="round" stroke-linejoin="round"/>
<path d="M57.4026 46.5966C57.4026 46.5966 55.7297 47.5841 53.5526 47.8124C51.3755 48.0406 50.1799 46.5198 50.1799 46.5198C50.1799 46.5198 49.9546 45.9887 49.3546 42.0386C48.7523 38.0863 49.9055 36.0615 49.9055 36.0615" stroke="#0F172A" stroke-width="0.5" stroke-linecap="round" stroke-linejoin="round"/>
<path d="M43.7043 43.3574C44.1884 43.5631 44.717 43.78 45.0784 43.9563" stroke="#0F172A" stroke-width="0.5" stroke-linecap="round" stroke-linejoin="round"/>
<path d="M28.0588 40.672C28.0588 40.672 29.7073 40.5133 31.8063 40.6221" stroke="#0F172A" stroke-width="0.5" stroke-linecap="round" stroke-linejoin="round"/>
<path d="M84.9973 84.0713C84.9973 84.0713 95.9942 114.357 96.6946 115.268C97.3951 116.181 98.5951 116.382 98.5951 116.382L99.6502 116.56" stroke="#0F172A" stroke-width="0.5" stroke-linecap="round" stroke-linejoin="round"/>
<path d="M76.7241 62.5518L84.5201 82.7565" stroke="#0F172A" stroke-width="0.5" stroke-linecap="round" stroke-linejoin="round"/>
<path d="M111.02 101.946C111.171 101.754 111.936 100.762 111.666 100.077C111.368 99.3179 99.9691 70.8311 99.5186 68.9307" stroke="#0F172A" stroke-width="0.5" stroke-linecap="round" stroke-linejoin="round"/>
<path d="M57.8821 74.4385C58.1029 75.0464 58.3215 75.6565 58.5446 76.2644C58.9349 77.331 59.3231 78.3976 59.7156 79.4642C60.2421 80.8969 60.6703 82.0607 60.9001 82.6822C61.8013 85.1137 62.4749 84.5804 63.2266 86.7091C63.9761 88.8355 73.3491 112.918 74.0986 115.196C74.7857 117.277 76.8445 117.838 77.197 117.919" stroke="#0F172A" stroke-width="0.5" stroke-linecap="round" stroke-linejoin="round"/>
<path d="M73.3982 28.0598C73.3982 28.0598 74.199 25.4272 75.8987 22.085" stroke="#0F172A" stroke-width="0.5" stroke-linecap="round" stroke-linejoin="round"/>
<path d="M82.6976 21.5781C79.9963 24.8187 73.3982 28.0592 73.3982 28.0592" stroke="#0F172A" stroke-width="0.5" stroke-linecap="round" stroke-linejoin="round"/>
<path d="M83.1972 13.5781C85.3966 14.6922 85.3966 18.3395 82.6975 21.58" stroke="#0F172A" stroke-width="0.5" stroke-linecap="round" stroke-linejoin="round"/>
<path d="M75.8987 22.0862C77.5984 18.744 79.6974 14.7939 83.1973 13.5781" stroke="#0F172A" stroke-width="0.5" stroke-linecap="round" stroke-linejoin="round"/>
<g clip-path="url(#clip0_2997_32182)">
<path fill-rule="evenodd" clip-rule="evenodd" d="M152.758 51.3615C152.69 51.2132 152.629 51.0649 152.575 50.9147C152.495 50.6894 152.444 50.454 152.376 50.2254C152.347 50.1285 152.267 49.8767 152.262 49.8388C152.219 49.5079 152.463 49.3899 152.536 49.361C152.571 49.346 152.934 49.2037 153.126 49.5975C153.361 50.079 153.53 50.5819 153.629 51.0923C153.825 51.4963 154.078 51.883 154.366 52.2175C155.509 53.5478 156.949 53.3206 158.462 52.8997C158.695 52.8336 158.937 52.965 159.012 53.1939C159.087 53.4245 158.967 53.6736 158.74 53.7568C157.914 54.0663 156.592 55.1507 156.262 55.999C156.193 56.1766 156.225 56.5514 156.235 56.9247C156.249 57.4431 156.239 57.9622 156.137 58.2064C156.122 58.2441 155.924 58.6415 155.852 58.7114C155.678 58.8777 155.498 58.8569 155.39 58.8224C155.281 58.7878 155.145 58.699 155.051 58.5165C154.953 58.3257 154.879 57.9003 154.849 57.8131C154.737 57.4968 154.503 56.8804 154.226 56.3711C154.076 56.0969 153.928 55.8466 153.767 55.7458C153.171 55.3726 152.449 55.6447 151.847 55.8942C151.778 55.9221 151.709 55.9518 151.64 55.9797C151.406 56.1229 151.151 56.2512 150.875 56.3608C150.458 56.5269 150.281 56.1496 150.27 56.1245C150.247 56.069 150.137 55.7803 150.43 55.5745C150.462 55.5528 150.708 55.4251 150.803 55.3754C150.934 55.3064 151.07 55.244 151.206 55.1831C152.553 54.3315 153.007 52.8325 152.758 51.3615ZM153.687 52.813C154.549 53.8128 155.54 54.1421 156.605 54.1257L156.605 54.1258C156.069 54.6194 155.612 55.1799 155.421 55.6707C155.349 55.8567 155.328 56.1972 155.327 56.5734C155.189 56.2607 155.027 55.9318 154.856 55.6595C154.662 55.3487 154.447 55.1051 154.246 54.9793C153.859 54.7371 153.433 54.6586 153.003 54.6785C153.374 54.117 153.598 53.4804 153.687 52.813Z" fill="#6B39F4"/>
</g>
<g clip-path="url(#clip1_2997_32182)">
<path fill-rule="evenodd" clip-rule="evenodd" d="M15.3372 132.113C15.2694 131.965 15.2086 131.817 15.1548 131.667C15.0739 131.441 15.0237 131.206 14.9552 130.977C14.9261 130.88 14.8462 130.629 14.8411 130.591C14.7983 130.26 15.0427 130.142 15.1157 130.113C15.1508 130.098 15.5137 129.956 15.7057 130.349C15.9407 130.831 16.1093 131.334 16.2083 131.844C16.4041 132.248 16.6575 132.635 16.9449 132.969C18.0885 134.3 19.5284 134.073 21.0416 133.652C21.274 133.586 21.5167 133.717 21.5911 133.946C21.6659 134.176 21.5464 134.426 21.3198 134.509C20.4938 134.818 19.1716 135.903 18.8411 136.751C18.772 136.929 18.8045 137.303 18.8147 137.677C18.8283 138.195 18.8183 138.714 18.7167 138.958C18.7018 138.996 18.5037 139.393 18.4316 139.463C18.2578 139.63 18.0775 139.609 17.969 139.574C17.8606 139.54 17.7245 139.451 17.6308 139.268C17.5328 139.078 17.4586 138.652 17.4279 138.565C17.3167 138.249 17.0826 137.632 16.8052 137.123C16.6558 136.849 16.5077 136.599 16.3465 136.498C15.7499 136.125 15.0285 136.397 14.4264 136.646C14.357 136.674 14.2882 136.704 14.219 136.732C13.9851 136.875 13.7303 137.003 13.4541 137.113C13.0371 137.279 12.8603 136.902 12.8494 136.876C12.826 136.821 12.7167 136.532 13.0095 136.326C13.0416 136.305 13.2874 136.177 13.3819 136.127C13.5137 136.058 13.6489 135.996 13.7851 135.935C15.1324 135.083 15.5868 133.584 15.3372 132.113ZM16.2663 133.565C17.1286 134.565 18.1191 134.894 19.1845 134.878L19.1843 134.878C18.6485 135.371 18.191 135.932 18.0003 136.423C17.9279 136.609 17.9069 136.949 17.9065 137.325C17.768 137.013 17.606 136.684 17.4354 136.411C17.241 136.101 17.0261 135.857 16.8254 135.731C16.438 135.489 16.0122 135.411 15.5823 135.431C15.953 134.869 16.1777 134.232 16.2663 133.565Z" fill="#6B39F4"/>
</g>
<g clip-path="url(#clip2_2997_32182)">
<path fill-rule="evenodd" clip-rule="evenodd" d="M16.333 19.4592C16.2653 19.3109 16.2045 19.1625 16.1506 19.0123C16.0698 18.7871 16.0195 18.5517 15.951 18.3231C15.9219 18.2261 15.842 17.9744 15.8369 17.9365C15.7941 17.6056 16.0386 17.4876 16.1116 17.4587C16.1466 17.4436 16.5096 17.3014 16.7015 17.6952C16.9365 18.1766 17.1051 18.6796 17.2042 19.19C17.4 19.594 17.6533 19.9806 17.9408 20.3152C19.0843 21.6455 20.5242 21.4183 22.0374 20.9974C22.2698 20.9313 22.5126 21.0626 22.5869 21.2915C22.6617 21.5222 22.5423 21.7712 22.3156 21.8545C21.4896 22.164 20.1674 23.2484 19.837 24.0966C19.7679 24.2742 19.8004 24.6491 19.8106 25.0224C19.8241 25.5408 19.8141 26.0598 19.7126 26.3041C19.6976 26.3418 19.4996 26.7392 19.4274 26.809C19.2537 26.9754 19.0734 26.9545 18.9649 26.92C18.8564 26.8855 18.7203 26.7967 18.6266 26.6141C18.5287 26.4234 18.4544 25.998 18.4238 25.9108C18.3126 25.5945 18.0785 24.9781 17.8011 24.4688C17.6516 24.1945 17.5035 23.9443 17.3424 23.8434C16.7457 23.4703 16.0243 23.7424 15.4222 23.9918C15.3529 24.0198 15.284 24.0495 15.2149 24.0774C14.9809 24.2206 14.7261 24.3488 14.4499 24.4585C14.033 24.6246 13.8561 24.2473 13.8453 24.2221C13.8218 24.1667 13.7126 23.8779 14.0053 23.6722C14.0374 23.6505 14.2832 23.5228 14.3778 23.4731C14.5095 23.4041 14.6447 23.3416 14.781 23.2808C16.1283 22.4291 16.5826 20.9302 16.333 19.4592ZM17.2622 20.9107C18.1244 21.9105 19.115 22.2397 20.1803 22.2234L20.1802 22.2234C19.6444 22.717 19.1868 23.2776 18.9962 23.7684C18.9237 23.9543 18.9027 24.2949 18.9023 24.6711C18.7639 24.3583 18.6018 24.0294 18.4312 23.7572C18.2368 23.4463 18.0219 23.2028 17.8212 23.077C17.4338 22.8348 17.008 22.7563 16.5781 22.7762C16.9488 22.2146 17.1735 21.5781 17.2622 20.9107Z" fill="#6B39F4"/>
</g>
<path fill-rule="evenodd" clip-rule="evenodd" d="M164.313 33.5721C164.28 33.4985 164.25 33.425 164.223 33.3505C164.183 33.2389 164.158 33.1222 164.124 33.0089C164.11 32.9608 164.07 32.836 164.068 32.8172C164.046 32.6532 164.168 32.5947 164.204 32.5804C164.221 32.5729 164.401 32.5024 164.496 32.6976C164.613 32.9363 164.696 33.1856 164.745 33.4386C164.842 33.6389 164.968 33.8305 165.11 33.9963C165.677 34.6558 166.391 34.5432 167.141 34.3345C167.256 34.3018 167.377 34.3669 167.414 34.4803C167.451 34.5947 167.391 34.7181 167.279 34.7594C166.87 34.9128 166.214 35.4503 166.05 35.8708C166.016 35.9588 166.032 36.1447 166.037 36.3297C166.044 36.5867 166.039 36.844 165.989 36.965C165.981 36.9837 165.883 37.1807 165.847 37.2154C165.761 37.2978 165.672 37.2875 165.618 37.2704C165.564 37.2533 165.497 37.2092 165.45 37.1187C165.402 37.0242 165.365 36.8133 165.35 36.7701C165.295 36.6133 165.179 36.3078 165.041 36.0553C164.967 35.9194 164.894 35.7953 164.814 35.7453C164.518 35.5603 164.16 35.6952 163.862 35.8189C163.828 35.8327 163.793 35.8474 163.759 35.8613C163.643 35.9323 163.517 35.9958 163.38 36.0502C163.173 36.1325 163.086 35.9455 163.08 35.933C163.069 35.9055 163.015 35.7624 163.16 35.6604C163.176 35.6497 163.297 35.5864 163.344 35.5617C163.41 35.5275 163.477 35.4966 163.544 35.4664C164.212 35.0442 164.437 34.3012 164.313 33.5721ZM164.774 34.2916C165.201 34.7872 165.692 34.9504 166.221 34.9422L166.22 34.9423C165.955 35.1869 165.728 35.4648 165.634 35.7081C165.598 35.8003 165.587 35.9691 165.587 36.1556C165.518 36.0005 165.438 35.8375 165.354 35.7025C165.257 35.5485 165.151 35.4277 165.051 35.3654C164.859 35.2453 164.648 35.2064 164.435 35.2163C164.619 34.9379 164.73 34.6224 164.774 34.2916Z" fill="#6B39F4"/>
<path fill-rule="evenodd" clip-rule="evenodd" d="M26.8928 114.324C26.8593 114.25 26.8291 114.177 26.8024 114.102C26.7623 113.991 26.7374 113.874 26.7035 113.761C26.689 113.713 26.6494 113.588 26.6469 113.569C26.6257 113.405 26.7469 113.347 26.783 113.332C26.8004 113.325 26.9803 113.254 27.0755 113.45C27.192 113.688 27.2756 113.938 27.3247 114.191C27.4217 114.391 27.5473 114.582 27.6898 114.748C28.2566 115.408 28.9704 115.295 29.7205 115.086C29.8357 115.054 29.956 115.119 29.9929 115.232C30.03 115.347 29.9707 115.47 29.8584 115.511C29.449 115.665 28.7935 116.202 28.6297 116.623C28.5955 116.711 28.6116 116.897 28.6167 117.082C28.6234 117.339 28.6184 117.596 28.5681 117.717C28.5607 117.736 28.4625 117.933 28.4267 117.967C28.3406 118.05 28.2512 118.039 28.1974 118.022C28.1437 118.005 28.0762 117.961 28.0298 117.871C27.9812 117.776 27.9444 117.565 27.9292 117.522C27.8741 117.365 27.7581 117.06 27.6205 116.807C27.5465 116.671 27.473 116.547 27.3931 116.497C27.0974 116.312 26.7398 116.447 26.4413 116.571C26.407 116.585 26.3728 116.599 26.3386 116.613C26.2226 116.684 26.0963 116.748 25.9594 116.802C25.7527 116.884 25.665 116.697 25.6597 116.685C25.648 116.657 25.5939 116.514 25.739 116.412C25.7549 116.402 25.8767 116.338 25.9236 116.314C25.9889 116.279 26.056 116.249 26.1235 116.218C26.7913 115.796 27.0166 115.053 26.8928 114.324ZM27.3534 115.044C27.7808 115.539 28.2718 115.702 28.7999 115.694L28.7998 115.694C28.5342 115.939 28.3074 116.217 28.2129 116.46C28.177 116.552 28.1666 116.721 28.1664 116.908C28.0978 116.752 28.0175 116.589 27.9329 116.454C27.8365 116.3 27.73 116.18 27.6305 116.117C27.4385 115.997 27.2274 115.958 27.0143 115.968C27.1981 115.69 27.3095 115.374 27.3534 115.044Z" fill="#6B39F4"/>
<path fill-rule="evenodd" clip-rule="evenodd" d="M27.8887 1.67069C27.8551 1.59715 27.825 1.52363 27.7983 1.44918C27.7582 1.33751 27.7333 1.22083 27.6993 1.10752C27.6849 1.05945 27.6453 0.934674 27.6427 0.915876C27.6215 0.751843 27.7427 0.693366 27.7789 0.679023C27.7963 0.671581 27.9762 0.601066 28.0713 0.796276C28.1878 1.03491 28.2714 1.28423 28.3205 1.53723C28.4175 1.73749 28.5431 1.92916 28.6856 2.09498C29.2525 2.75442 29.9662 2.64179 30.7163 2.43315C30.8315 2.4004 30.9519 2.46549 30.9887 2.57896C31.0258 2.69329 30.9666 2.81676 30.8542 2.85802C30.4448 3.01145 29.7894 3.54897 29.6256 3.96946C29.5913 4.05747 29.6074 4.24328 29.6125 4.42834C29.6192 4.6853 29.6142 4.9426 29.5639 5.06368C29.5565 5.08236 29.4583 5.27936 29.4226 5.31399C29.3364 5.39645 29.2471 5.3861 29.1933 5.369C29.1395 5.35189 29.0721 5.30785 29.0256 5.21736C28.977 5.1228 28.9402 4.91194 28.9251 4.86871C28.8699 4.71192 28.7539 4.40639 28.6164 4.15392C28.5423 4.01799 28.4689 3.89393 28.389 3.84394C28.0933 3.65896 27.7356 3.79384 27.4372 3.9175C27.4028 3.93135 27.3687 3.94608 27.3344 3.95991C27.2184 4.0309 27.0921 4.09446 26.9552 4.14881C26.7485 4.23115 26.6609 4.04413 26.6555 4.03166C26.6439 4.00417 26.5897 3.86104 26.7348 3.75905C26.7508 3.74828 26.8726 3.68499 26.9195 3.66037C26.9848 3.62615 27.0518 3.59519 27.1193 3.56502C27.7872 3.14287 28.0124 2.39985 27.8887 1.67069ZM28.3492 2.39019C28.7767 2.88578 29.2677 3.04899 29.7958 3.04087L29.7957 3.0409C29.5301 3.28558 29.3033 3.56344 29.2088 3.80674C29.1729 3.89892 29.1625 4.06772 29.1623 4.25419C29.0936 4.09917 29.0133 3.93615 28.9287 3.80117C28.8324 3.64709 28.7259 3.52636 28.6264 3.46402C28.4343 3.34396 28.2233 3.30505 28.0102 3.31492C28.1939 3.03654 28.3053 2.72101 28.3492 2.39019Z" fill="#6B39F4"/>
<path fill-rule="evenodd" clip-rule="evenodd" d="M139.418 28.5877C139.385 28.5141 139.355 28.4406 139.328 28.3662C139.288 28.2545 139.263 28.1378 139.229 28.0245C139.215 27.9764 139.175 27.8517 139.173 27.8329C139.151 27.6688 139.273 27.6104 139.309 27.596C139.326 27.5886 139.506 27.5181 139.601 27.7133C139.718 27.9519 139.801 28.2012 139.85 28.4542C139.947 28.6545 140.073 28.8462 140.215 29.012C140.782 29.6714 141.496 29.5588 142.246 29.3501C142.361 29.3174 142.482 29.3825 142.519 29.496C142.556 29.6103 142.496 29.7337 142.384 29.775C141.975 29.9284 141.319 30.466 141.155 30.8864C141.121 30.9745 141.137 31.1603 141.142 31.3453C141.149 31.6023 141.144 31.8596 141.094 31.9807C141.086 31.9994 140.988 32.1963 140.952 32.231C140.866 32.3134 140.777 32.3031 140.723 32.286C140.669 32.2689 140.602 32.2248 140.555 32.1344C140.507 32.0398 140.47 31.8289 140.455 31.7857C140.4 31.6289 140.284 31.3234 140.146 31.0709C140.072 30.935 139.999 30.8109 139.919 30.7609C139.623 30.5759 139.265 30.7108 138.967 30.8345C138.933 30.8483 138.898 30.8631 138.864 30.8769C138.748 30.9479 138.622 31.0114 138.485 31.0658C138.278 31.1481 138.191 30.9611 138.185 30.9487C138.174 30.9212 138.12 30.778 138.265 30.676C138.281 30.6653 138.402 30.602 138.449 30.5774C138.515 30.5431 138.582 30.5122 138.649 30.482C139.317 30.0599 139.542 29.3168 139.418 28.5877ZM139.879 29.3072C140.306 29.8028 140.797 29.966 141.326 29.9579L141.325 29.9579C141.06 30.2026 140.833 30.4804 140.739 30.7237C140.703 30.8159 140.692 30.9847 140.692 31.1712C140.623 31.0162 140.543 30.8531 140.459 30.7182C140.362 30.5641 140.256 30.4434 140.156 30.381C139.964 30.2609 139.753 30.222 139.54 30.2319C139.724 29.9535 139.835 29.638 139.879 29.3072Z" fill="#6B39F4"/>
<path fill-rule="evenodd" clip-rule="evenodd" d="M1.99781 109.341C1.96423 109.267 1.93409 109.194 1.9074 109.119C1.86732 109.007 1.84239 108.891 1.80845 108.777C1.79401 108.729 1.75441 108.605 1.75188 108.586C1.73067 108.422 1.85185 108.363 1.88803 108.349C1.9054 108.342 2.08533 108.271 2.18046 108.466C2.29695 108.705 2.38054 108.954 2.42963 109.207C2.52668 109.407 2.65228 109.599 2.79476 109.765C3.36163 110.424 4.07536 110.312 4.82547 110.103C4.94065 110.07 5.061 110.135 5.09785 110.249C5.13494 110.363 5.07571 110.487 4.96337 110.528C4.55393 110.681 3.89851 111.219 3.73471 111.639C3.70046 111.727 3.71657 111.913 3.72163 112.098C3.72834 112.355 3.72337 112.613 3.67305 112.734C3.66564 112.752 3.56745 112.949 3.5317 112.984C3.44557 113.066 3.35619 113.056 3.30242 113.039C3.24865 113.022 3.18118 112.978 3.13473 112.887C3.08617 112.793 3.04938 112.582 3.03419 112.539C2.97908 112.382 2.86303 112.076 2.72552 111.824C2.65143 111.688 2.57802 111.564 2.49813 111.514C2.20239 111.329 1.84478 111.464 1.54632 111.587C1.51196 111.601 1.47783 111.616 1.44355 111.63C1.32757 111.701 1.20127 111.764 1.06435 111.819C0.857668 111.901 0.770007 111.714 0.764632 111.702C0.753013 111.674 0.698862 111.531 0.843964 111.429C0.859888 111.418 0.981722 111.355 1.02858 111.33C1.0939 111.296 1.16093 111.265 1.22845 111.235C1.89631 110.813 2.12154 110.07 1.99781 109.341ZM2.45838 110.06C2.8858 110.556 3.37682 110.719 3.90491 110.711L3.90482 110.711C3.63922 110.955 3.41242 111.233 3.31793 111.477C3.28201 111.569 3.27161 111.738 3.2714 111.924C3.20277 111.769 3.12245 111.606 3.03788 111.471C2.94152 111.317 2.835 111.196 2.7355 111.134C2.54347 111.014 2.3324 110.975 2.11929 110.985C2.30306 110.706 2.41445 110.391 2.45838 110.06Z" fill="#6B39F4"/>
<defs>
<clipPath id="clip0_2997_32182">
<rect width="10.1097" height="10.1197" fill="white" transform="matrix(0.965852 -0.259096 0.258542 0.966 148.375 50.4727)"/>
</clipPath>
<clipPath id="clip1_2997_32182">
<rect width="10.1097" height="10.1197" fill="white" transform="matrix(0.965852 -0.259096 0.258542 0.966 10.9539 131.225)"/>
</clipPath>
<clipPath id="clip2_2997_32182">
<rect width="10.1097" height="10.1197" fill="white" transform="matrix(0.965852 -0.259096 0.258542 0.966 11.9497 18.5703)"/>
</clipPath>
</defs>
</svg>
